<svg version="1.1" xmlns="http://www.w3.org/2000/svg" viewBox="0 0 1180 504.6" width="1180" height="504.6" class="excalidraw-svg">
  <!-- svg-source:excalidraw -->

  <defs>
    <style class="style-fonts">
      @font-face {
        font-family: "Virgil";
        src: url("https://excalidraw.com/Virgil.woff2");
      }
      @font-face {
        font-family: "Cascadia";
        src: url("https://excalidraw.com/Cascadia.woff2");
      }
      @font-face {
        font-family: "Assistant";
        src: url("https://excalidraw.com/Assistant-Regular.woff2");
      }
    </style>

  </defs>
  <rect x="0" y="0" width="1180" height="504.6" fill="#ffffff"/><g stroke-linecap="round" transform="translate(30 394.6) rotate(0 550 40)"><path d="M20 0 C294.27 0, 568.54 0, 1080 0 M20 0 C314.91 0, 609.82 0, 1080 0 M1080 0 C1093.33 0, 1100 6.67, 1100 20 M1080 0 C1093.33 0, 1100 6.67, 1100 20 M1100 20 C1100 34.98, 1100 49.96, 1100 60 M1100 20 C1100 32.12, 1100 44.24, 1100 60 M1100 60 C1100 73.33, 1093.33 80, 1080 80 M1100 60 C1100 73.33, 1093.33 80, 1080 80 M1080 80 C781.21 80, 482.42 80, 20 80 M1080 80 C778.48 80, 476.96 80, 20 80 M20 80 C6.67 80, 0 73.33, 0 60 M20 80 C6.67 80, 0 73.33, 0 60 M0 60 C0 45.41, 0 30.82, 0 20 M0 60 C0 50.32, 0 40.64, 0 20 M0 20 C0 6.67, 6.67 0, 20 0 M0 20 C0 6.67, 6.67 0, 20 0" stroke="#1e1e1e" stroke-width="2" fill="none"/></g><g transform="translate(543.8818359375 423.1) rotate(0 36.1181640625 11.5)"><text x="36.1181640625" y="0" font-family="Helvetica, Segoe UI Emoji" font-size="20px" fill="#1e1e1e" text-anchor="middle" style="white-space: pre;" direction="ltr" dominant-baseline="text-before-edge">Maxwell</text></g><g stroke-linecap="round" transform="translate(460 74.60000000000002) rotate(0 110 40)"><path d="M20 0 C70.35 0, 120.71 0, 200 0 M20 0 C80.03 0, 140.05 0, 200 0 M200 0 C213.33 0, 220 6.67, 220 20 M200 0 C213.33 0, 220 6.67, 220 20 M220 20 C220 28.64, 220 37.29, 220 60 M220 20 C220 29.39, 220 38.78, 220 60 M220 60 C220 73.33, 213.33 80, 200 80 M220 60 C220 73.33, 213.33 80, 200 80 M200 80 C142.77 80, 85.55 80, 20 80 M200 80 C149.49 80, 98.99 80, 20 80 M20 80 C6.67 80, 0 73.33, 0 60 M20 80 C6.67 80, 0 73.33, 0 60 M0 60 C0 51.89, 0 43.77, 0 20 M0 60 C0 49.37, 0 38.73, 0 20 M0 20 C0 6.67, 6.67 0, 20 0 M0 20 C0 6.67, 6.67 0, 20 0" stroke="#1e1e1e" stroke-width="2" fill="none"/></g><g transform="translate(484.404296875 103.10000000000002) rotate(0 85.595703125 11.5)"><text x="85.595703125" y="0" font-family="Helvetica, Segoe UI Emoji" font-size="20px" fill="#1e1e1e" text-anchor="middle" style="white-space: pre;" direction="ltr" dominant-baseline="text-before-edge">DESY Sync&amp;Share</text></g><g mask="url(#mask-TyDaxZ8vgPM_tP_sjb_gg)" stroke-linecap="round"><g transform="translate(580.0021473037394 384.6) rotate(0 -0.0008632018354433058 -110)"><path d="M0 0 C0 -36.67, 0 -183.33, 0 -220 M0 0 C0 -36.67, 0 -183.33, 0 -220" stroke="#1e1e1e" stroke-width="2" fill="none"/></g><g transform="translate(580.0021473037394 384.6) rotate(0 -0.0008632018354433058 -110)"><path d="M0 -220 L6.34 -206.41 L-6.34 -206.41 L0 -220" stroke="none" stroke-width="0" fill="#1e1e1e" fill-rule="evenodd"/><path d="M0 -220 C2.23 -215.22, 4.45 -210.44, 6.34 -206.41 M0 -220 C2.29 -215.09, 4.58 -210.18, 6.34 -206.41 M6.34 -206.41 C3.42 -206.41, 0.51 -206.41, -6.34 -206.41 M6.34 -206.41 C1.32 -206.41, -3.7 -206.41, -6.34 -206.41 M-6.34 -206.41 C-4.79 -209.73, -3.24 -213.06, 0 -220 M-6.34 -206.41 C-4.3 -210.79, -2.25 -215.18, 0 -220 M0 -220 C0 -220, 0 -220, 0 -220 M0 -220 C0 -220, 0 -220, 0 -220" stroke="#1e1e1e" stroke-width="2" fill="none"/></g></g><mask id="mask-TyDaxZ8vgPM_tP_sjb_gg"><rect x="0" y="0" fill="#fff" width="680.0038737074103" height="704.6"/><rect x="510.51397941440393" y="251.60000000000002" fill="#000" width="138.974609375" height="46" opacity="1"/></mask><g transform="translate(510.51397941440393 251.60000000000002) rotate(0 69.4873046875 23)"><text x="69.4873046875" y="0" font-family="Helvetica, Segoe UI Emoji" font-size="20px" fill="#1e1e1e" text-anchor="middle" style="white-space: pre;" direction="ltr" dominant-baseline="text-before-edge">Upload images</text><text x="69.4873046875" y="23" font-family="Helvetica, Segoe UI Emoji" font-size="20px" fill="#1e1e1e" text-anchor="middle" style="white-space: pre;" direction="ltr" dominant-baseline="text-before-edge">to shared folder</text></g><g stroke-linecap="round" transform="translate(30 74.60000000000002) rotate(0 160 40)"><path d="M20 0 C98.99 0, 177.98 0, 300 0 M20 0 C92.73 0, 165.47 0, 300 0 M300 0 C313.33 0, 320 6.67, 320 20 M300 0 C313.33 0, 320 6.67, 320 20 M320 20 C320 32.23, 320 44.47, 320 60 M320 20 C320 30.43, 320 40.86, 320 60 M320 60 C320 73.33, 313.33 80, 300 80 M320 60 C320 73.33, 313.33 80, 300 80 M300 80 C242.64 80, 185.27 80, 20 80 M300 80 C224.24 80, 148.48 80, 20 80 M20 80 C6.67 80, 0 73.33, 0 60 M20 80 C6.67 80, 0 73.33, 0 60 M0 60 C0 51.85, 0 43.7, 0 20 M0 60 C0 51.28, 0 42.55, 0 20 M0 20 C0 6.67, 6.67 0, 20 0 M0 20 C0 6.67, 6.67 0, 20 0" stroke="#1e1e1e" stroke-width="2" fill="none"/></g><g transform="translate(125.52734375 103.10000000000002) rotate(0 64.47265625 11.5)"><text x="64.47265625" y="0" font-family="Helvetica, Segoe UI Emoji" font-size="20px" fill="#1e1e1e" text-anchor="middle" style="white-space: pre;" direction="ltr" dominant-baseline="text-before-edge">OpenAI server</text></g><g mask="url(#mask-MH7m88rwQ-m-bt2r4B5W6)" stroke-linecap="round"><g transform="translate(110 384.6) rotate(0 0 -110)"><path d="M0 0 C0 -36.67, 0 -183.33, 0 -220 M0 0 C0 -36.67, 0 -183.33, 0 -220" stroke="#1e1e1e" stroke-width="2" fill="none"/></g><g transform="translate(110 384.6) rotate(0 0 -110)"><path d="M0 -220 L6.34 -206.41 L-6.34 -206.41 L0 -220" stroke="none" stroke-width="0" fill="#1e1e1e" fill-rule="evenodd"/><path d="M0 -220 C2.37 -214.91, 4.75 -209.82, 6.34 -206.41 M0 -220 C2.07 -215.57, 4.13 -211.14, 6.34 -206.41 M6.34 -206.41 C3.44 -206.41, 0.54 -206.41, -6.34 -206.41 M6.34 -206.41 C1.66 -206.41, -3.02 -206.41, -6.34 -206.41 M-6.34 -206.41 C-3.89 -211.66, -1.44 -216.92, 0 -220 M-6.34 -206.41 C-3.84 -211.77, -1.34 -217.13, 0 -220 M0 -220 C0 -220, 0 -220, 0 -220 M0 -220 C0 -220, 0 -220, 0 -220" stroke="#1e1e1e" stroke-width="2" fill="none"/></g></g><mask id="mask-MH7m88rwQ-m-bt2r4B5W6"><rect x="0" y="0" fill="#fff" width="210" height="704.6"/><rect x="35.5078125" y="240.10000000000002" fill="#000" width="148.984375" height="69" opacity="1"/></mask><g transform="translate(35.5078125 240.10000000000002) rotate(0 74.4921875 34.5)"><text x="74.4921875" y="0" font-family="Helvetica, Segoe UI Emoji" font-size="20px" fill="#1e1e1e" text-anchor="middle" style="white-space: pre;" direction="ltr" dominant-baseline="text-before-edge">Send request to</text><text x="74.4921875" y="23" font-family="Helvetica, Segoe UI Emoji" font-size="20px" fill="#1e1e1e" text-anchor="middle" style="white-space: pre;" direction="ltr" dominant-baseline="text-before-edge">generate images</text><text x="74.4921875" y="46" font-family="Helvetica, Segoe UI Emoji" font-size="20px" fill="#1e1e1e" text-anchor="middle" style="white-space: pre;" direction="ltr" dominant-baseline="text-before-edge">and descriptions</text></g><g mask="url(#mask-UEVaLWuhvzqJL0aeyHWwj)" stroke-linecap="round"><g transform="translate(310 164.60000000000002) rotate(0 -7.105427357601002e-15 110)"><path d="M0 0 C0 36.67, 0 183.33, 0 220 M0 0 C0 36.67, 0 183.33, 0 220" stroke="#1e1e1e" stroke-width="2" fill="none"/></g><g transform="translate(310 164.60000000000002) rotate(0 -7.105427357601002e-15 110)"><path d="M0 220 L-6.34 206.41 L6.34 206.41 L0 220" stroke="none" stroke-width="0" fill="#1e1e1e" fill-rule="evenodd"/><path d="M0 220 C-1.51 216.76, -3.02 213.51, -6.34 206.41 M0 220 C-1.48 216.82, -2.96 213.65, -6.34 206.41 M-6.34 206.41 C-3.04 206.41, 0.25 206.41, 6.34 206.41 M-6.34 206.41 C-3.3 206.41, -0.27 206.41, 6.34 206.41 M6.34 206.41 C4.42 210.51, 2.51 214.62, 0 220 M6.34 206.41 C4.02 211.38, 1.7 216.35, 0 220 M0 220 C0 220, 0 220, 0 220 M0 220 C0 220, 0 220, 0 220" stroke="#1e1e1e" stroke-width="2" fill="none"/></g></g><mask id="mask-UEVaLWuhvzqJL0aeyHWwj"><rect x="0" y="0" fill="#fff" width="410" height="484.6"/><rect x="227.734375" y="251.60000000000002" fill="#000" width="164.53125" height="46" opacity="1"/></mask><g transform="translate(227.734375 251.60000000000002) rotate(0 82.265625 23)"><text x="82.265625" y="0" font-family="Helvetica, Segoe UI Emoji" font-size="20px" fill="#1e1e1e" text-anchor="middle" style="white-space: pre;" direction="ltr" dominant-baseline="text-before-edge">Download images </text><text x="82.265625" y="23" font-family="Helvetica, Segoe UI Emoji" font-size="20px" fill="#1e1e1e" text-anchor="middle" style="white-space: pre;" direction="ltr" dominant-baseline="text-before-edge">and descriptions</text></g><g stroke-linecap="round" transform="translate(900 74.60000000000002) rotate(0 115 40)"><path d="M20 0 C75.81 0, 131.63 0, 210 0 M20 0 C81.26 0, 142.51 0, 210 0 M210 0 C223.33 0, 230 6.67, 230 20 M210 0 C223.33 0, 230 6.67, 230 20 M230 20 C230 33.66, 230 47.33, 230 60 M230 20 C230 32.08, 230 44.16, 230 60 M230 60 C230 73.33, 223.33 80, 210 80 M230 60 C230 73.33, 223.33 80, 210 80 M210 80 C135.64 80, 61.28 80, 20 80 M210 80 C151.9 80, 93.79 80, 20 80 M20 80 C6.67 80, 0 73.33, 0 60 M20 80 C6.67 80, 0 73.33, 0 60 M0 60 C0 46.46, 0 32.92, 0 20 M0 60 C0 46.4, 0 32.8, 0 20 M0 20 C0 6.67, 6.67 0, 20 0 M0 20 C0 6.67, 6.67 0, 20 0" stroke="#1e1e1e" stroke-width="2" fill="none"/></g><g transform="translate(964.990234375 103.10000000000002) rotate(0 50.009765625 11.5)"><text x="50.009765625" y="0" font-family="Helvetica, Segoe UI Emoji" font-size="20px" fill="#1e1e1e" text-anchor="middle" style="white-space: pre;" direction="ltr" dominant-baseline="text-before-edge">Mattermost</text></g><g mask="url(#mask-zijh7y4CTFDmLZHH6ZOvR)" stroke-linecap="round"><g transform="translate(1020 384.6) rotate(0 0 -110)"><path d="M0 0 C0 -36.67, 0 -183.33, 0 -220 M0 0 C0 -36.67, 0 -183.33, 0 -220" stroke="#1e1e1e" stroke-width="2" fill="none"/></g><g transform="translate(1020 384.6) rotate(0 0 -110)"><path d="M0 -220 L6.34 -206.41 L-6.34 -206.41 L0 -220" stroke="none" stroke-width="0" fill="#1e1e1e" fill-rule="evenodd"/><path d="M0 -220 C1.99 -215.73, 3.98 -211.47, 6.34 -206.41 M0 -220 C1.28 -217.26, 2.56 -214.52, 6.34 -206.41 M6.34 -206.41 C2.21 -206.41, -1.93 -206.41, -6.34 -206.41 M6.34 -206.41 C1.87 -206.41, -2.6 -206.41, -6.34 -206.41 M-6.34 -206.41 C-4.5 -210.36, -2.65 -214.31, 0 -220 M-6.34 -206.41 C-5 -209.27, -3.67 -212.14, 0 -220 M0 -220 C0 -220, 0 -220, 0 -220 M0 -220 C0 -220, 0 -220, 0 -220" stroke="#1e1e1e" stroke-width="2" fill="none"/></g></g><mask id="mask-zijh7y4CTFDmLZHH6ZOvR"><rect x="0" y="0" fill="#fff" width="1120" height="704.6"/><rect x="911.044921875" y="251.60000000000002" fill="#000" width="217.91015625" height="46" opacity="1"/></mask><g transform="translate(911.044921875 251.60000000000002) rotate(0 108.955078125 23)"><text x="108.955078125" y="0" font-family="Helvetica, Segoe UI Emoji" font-size="20px" fill="#1e1e1e" text-anchor="middle" style="white-space: pre;" direction="ltr" dominant-baseline="text-before-edge">Send message linking to</text><text x="108.955078125" y="23" font-family="Helvetica, Segoe UI Emoji" font-size="20px" fill="#1e1e1e" text-anchor="middle" style="white-space: pre;" direction="ltr" dominant-baseline="text-before-edge">images on shared folder</text></g><g stroke-linecap="round"><g transform="translate(888.5178330478788 123.3761190568265) rotate(0 -87.44785017515238 -14.411893484216478)"><path d="M0 0 C-29.4 -0.2, -146.98 3.58, -176.38 -1.22 C-205.77 -6.03, -206.02 -26.03, -176.38 -28.82 C-146.73 -31.62, -28.16 -19.82, 1.48 -18.02 M0 0 C-29.4 -0.2, -146.98 3.58, -176.38 -1.22 C-205.77 -6.03, -206.02 -26.03, -176.38 -28.82 C-146.73 -31.62, -28.16 -19.82, 1.48 -18.02" stroke="#1e1e1e" stroke-width="2" fill="none"/></g><g transform="translate(888.5178330478788 123.3761190568265) rotate(0 -87.44785017515238 -14.411893484216478)"><path d="M1.48 -18.02 L-12.57 -12.78 L-11.57 -25.41 L1.48 -18.02" stroke="none" stroke-width="0" fill="#1e1e1e" fill-rule="evenodd"/><path d="M1.48 -18.02 C-2.35 -16.59, -6.19 -15.16, -12.57 -12.78 M1.48 -18.02 C-1.9 -16.76, -5.28 -15.5, -12.57 -12.78 M-12.57 -12.78 C-12.29 -16.38, -12 -19.99, -11.57 -25.41 M-12.57 -12.78 C-12.18 -17.7, -11.79 -22.63, -11.57 -25.41 M-11.57 -25.41 C-6.83 -22.73, -2.09 -20.04, 1.48 -18.02 M-11.57 -25.41 C-7.02 -22.84, -2.48 -20.26, 1.48 -18.02 M1.48 -18.02 C1.48 -18.02, 1.48 -18.02, 1.48 -18.02 M1.48 -18.02 C1.48 -18.02, 1.48 -18.02, 1.48 -18.02" stroke="#1e1e1e" stroke-width="2" fill="none"/></g></g><mask/><g transform="translate(759.4067719019695 143.32812437932898) rotate(0 47.2509765625 34.5)"><text x="47.2509765625" y="0" font-family="Helvetica, Segoe UI Emoji" font-size="20px" fill="#1e1e1e" text-anchor="middle" style="white-space: pre;" direction="ltr" dominant-baseline="text-before-edge">Download </text><text x="47.2509765625" y="23" font-family="Helvetica, Segoe UI Emoji" font-size="20px" fill="#1e1e1e" text-anchor="middle" style="white-space: pre;" direction="ltr" dominant-baseline="text-before-edge">generated</text><text x="47.2509765625" y="46" font-family="Helvetica, Segoe UI Emoji" font-size="20px" fill="#1e1e1e" text-anchor="middle" style="white-space: pre;" direction="ltr" dominant-baseline="text-before-edge">images</text></g><g stroke-linecap="round" transform="translate(10 54.60000000000002) rotate(0 580 220)"><path d="M32 0 C288.35 0, 544.7 0, 1128 0 M1128 0 C1149.33 0, 1160 10.67, 1160 32 M1160 32 C1160 129.97, 1160 227.94, 1160 408 M1160 408 C1160 429.33, 1149.33 440, 1128 440 M1128 440 C880.27 440, 632.53 440, 32 440 M32 440 C10.67 440, 0 429.33, 0 408 M0 408 C0 331.85, 0 255.7, 0 32 M0 32 C0 10.67, 10.67 0, 32 0" stroke="#1e1e1e" stroke-width="2.5" fill="none" stroke-dasharray="8 10"/></g><g transform="translate(396.85156250000006 10) rotate(0 186.01953125 16.100000000000023)"><text x="186.01953125" y="0" font-family="Helvetica, Segoe UI Emoji" font-size="28px" fill="#1e1e1e" text-anchor="middle" style="white-space: pre;" direction="ltr" dominant-baseline="text-before-edge">One execution of the lunchbot</text></g></svg>
