<svg version="1.1" xmlns="http://www.w3.org/2000/svg" viewBox="0 0 835.078125 560.9913697338369" width="835.078125" height="560.9913697338369" class="excalidraw-svg">
  <!-- svg-source:excalidraw -->
  
  <defs>
    <style class="style-fonts">
      @font-face {
        font-family: "Virgil";
        src: url("https://excalidraw.com/Virgil.woff2");
      }
      @font-face {
        font-family: "Cascadia";
        src: url("https://excalidraw.com/Cascadia.woff2");
      }
      @font-face {
        font-family: "Assistant";
        src: url("https://excalidraw.com/Assistant-Regular.woff2");
      }
    </style>
    
  </defs>
  <rect x="0" y="0" width="835.078125" height="560.9913697338369" fill="#ffffff"/><g stroke-linecap="round"><g transform="translate(460 270) rotate(0 -60 0)"><path d="M0 0 C-20 0, -100 0, -120 0 M0 0 C-20 0, -100 0, -120 0" stroke="#1e1e1e" stroke-width="2" fill="none"/></g><g transform="translate(460 270) rotate(0 -60 0)"><path d="M-120 0 L-106.41 -6.34 L-106.41 6.34 L-120 0" stroke="none" stroke-width="0" fill="#1e1e1e" fill-rule="evenodd"/><path d="M-120 0 C-115.69 -2.01, -111.39 -4.02, -106.41 -6.34 M-120 0 C-114.66 -2.49, -109.32 -4.98, -106.41 -6.34 M-106.41 -6.34 C-106.41 -2.47, -106.41 1.4, -106.41 6.34 M-106.41 -6.34 C-106.41 -3.12, -106.41 0.09, -106.41 6.34 M-106.41 6.34 C-109.16 5.05, -111.92 3.77, -120 0 M-106.41 6.34 C-111.48 3.98, -116.54 1.61, -120 0 M-120 0 C-120 0, -120 0, -120 0 M-120 0 C-120 0, -120 0, -120 0" stroke="#1e1e1e" stroke-width="2" fill="none"/></g></g><mask/><g stroke-linecap="round"><g transform="translate(337.33410966497104 510) rotate(0 61.332945167514495 -1.4210854715202004e-14)"><path d="M0 0 C20.44 0, 102.22 0, 122.67 0 M0 0 C20.44 0, 102.22 0, 122.67 0" stroke="#1e1e1e" stroke-width="2" fill="none"/></g><g transform="translate(337.33410966497104 510) rotate(0 61.332945167514495 -1.4210854715202004e-14)"><path d="M122.67 0 L109.07 6.34 L109.07 -6.34 L122.67 0" stroke="none" stroke-width="0" fill="#1e1e1e" fill-rule="evenodd"/><path d="M122.67 0 C119.37 1.54, 116.07 3.07, 109.07 6.34 M122.67 0 C118.53 1.93, 114.39 3.86, 109.07 6.34 M109.07 6.34 C109.07 3.45, 109.07 0.57, 109.07 -6.34 M109.07 6.34 C109.07 2.24, 109.07 -1.87, 109.07 -6.34 M109.07 -6.34 C113.32 -4.36, 117.57 -2.38, 122.67 0 M109.07 -6.34 C114.5 -3.81, 119.94 -1.27, 122.67 0 M122.67 0 C122.67 0, 122.67 0, 122.67 0 M122.67 0 C122.67 0, 122.67 0, 122.67 0" stroke="#1e1e1e" stroke-width="2" fill="none"/></g></g><mask/><g stroke-linecap="round"><g transform="translate(337.33410966497104 360) rotate(0 61.332945167514495 -3.552713678800501e-15)"><path d="M0 0 C20.44 0, 102.22 0, 122.67 0 M0 0 C20.44 0, 102.22 0, 122.67 0" stroke="#1e1e1e" stroke-width="2" fill="none"/></g><g transform="translate(337.33410966497104 360) rotate(0 61.332945167514495 -3.552713678800501e-15)"><path d="M122.67 0 L109.07 6.34 L109.07 -6.34 L122.67 0" stroke="none" stroke-width="0" fill="#1e1e1e" fill-rule="evenodd"/><path d="M122.67 0 C118.17 2.1, 113.67 4.2, 109.07 6.34 M122.67 0 C117.71 2.31, 112.75 4.63, 109.07 6.34 M109.07 6.34 C109.07 3.21, 109.07 0.08, 109.07 -6.34 M109.07 6.34 C109.07 2.37, 109.07 -1.6, 109.07 -6.34 M109.07 -6.34 C111.91 -5.01, 114.75 -3.69, 122.67 0 M109.07 -6.34 C113.61 -4.22, 118.15 -2.11, 122.67 0 M122.67 0 C122.67 0, 122.67 0, 122.67 0 M122.67 0 C122.67 0, 122.67 0, 122.67 0" stroke="#1e1e1e" stroke-width="2" fill="none"/></g></g><mask/><g stroke-linecap="round"><g transform="translate(460 90.00000000000006) rotate(0 -61.332945167514495 -1.4210854715202004e-14)"><path d="M0 0 C-20.44 0, -102.22 0, -122.67 0 M0 0 C-20.44 0, -102.22 0, -122.67 0" stroke="#1e1e1e" stroke-width="2" fill="none"/></g><g transform="translate(460 90.00000000000006) rotate(0 -61.332945167514495 -1.4210854715202004e-14)"><path d="M-122.67 0 L-109.07 -6.34 L-109.07 6.34 L-122.67 0" stroke="none" stroke-width="0" fill="#1e1e1e" fill-rule="evenodd"/><path d="M-122.67 0 C-119.27 -1.58, -115.88 -3.16, -109.07 -6.34 M-122.67 0 C-119.14 -1.64, -115.61 -3.29, -109.07 -6.34 M-109.07 -6.34 C-109.07 -2.59, -109.07 1.15, -109.07 6.34 M-109.07 -6.34 C-109.07 -3.02, -109.07 0.3, -109.07 6.34 M-109.07 6.34 C-112.66 4.67, -116.25 2.99, -122.67 0 M-109.07 6.34 C-114.35 3.88, -119.62 1.42, -122.67 0 M-122.67 0 C-122.67 0, -122.67 0, -122.67 0 M-122.67 0 C-122.67 0, -122.67 0, -122.67 0" stroke="#1e1e1e" stroke-width="2" fill="none"/></g></g><mask/><g stroke-linecap="round"><g transform="translate(340 180) rotate(0 59.999999999999986 0.5591489040511277)"><path d="M0 0 C20 0.19, 100 0.93, 120 1.12 M0 0 C20 0.19, 100 0.93, 120 1.12" stroke="#1e1e1e" stroke-width="2" fill="none"/></g><g transform="translate(340 180) rotate(0 59.999999999999986 0.5591489040511277)"><path d="M120 1.12 L106.35 7.33 L106.47 -5.35 L120 1.12" stroke="none" stroke-width="0" fill="#1e1e1e" fill-rule="evenodd"/><path d="M120 1.12 C116.4 2.76, 112.8 4.4, 106.35 7.33 M120 1.12 C114.88 3.45, 109.75 5.78, 106.35 7.33 M106.35 7.33 C106.39 3.06, 106.43 -1.22, 106.47 -5.35 M106.35 7.33 C106.39 2.4, 106.44 -2.54, 106.47 -5.35 M106.47 -5.35 C111.83 -2.79, 117.19 -0.22, 120 1.12 M106.47 -5.35 C109.3 -3.99, 112.13 -2.64, 120 1.12 M120 1.12 C120 1.12, 120 1.12, 120 1.12 M120 1.12 C120 1.12, 120 1.12, 120 1.12" stroke="#1e1e1e" stroke-width="2" fill="none"/></g></g><mask/><g transform="translate(30 10) rotate(0 132.87109375 11.5)"><text x="132.87109375" y="0" font-family="Helvetica, Segoe UI Emoji" font-size="20px" fill="#9c36b5" text-anchor="middle" style="white-space: pre;" direction="ltr" dominant-baseline="text-before-edge">One execution of the lunchbot</text></g><g stroke-linecap="round" transform="translate(20 480) rotate(0 145 30)"><path d="M15 0 C110.95 0, 206.9 0, 275 0 M15 0 C99.13 0, 183.25 0, 275 0 M275 0 C285 0, 290 5, 290 15 M275 0 C285 0, 290 5, 290 15 M290 15 C290 23.24, 290 31.48, 290 45 M290 15 C290 22.4, 290 29.8, 290 45 M290 45 C290 55, 285 60, 275 60 M290 45 C290 55, 285 60, 275 60 M275 60 C180.36 60, 85.73 60, 15 60 M275 60 C172.08 60, 69.17 60, 15 60 M15 60 C5 60, 0 55, 0 45 M15 60 C5 60, 0 55, 0 45 M0 45 C0 34.57, 0 24.15, 0 15 M0 45 C0 36.86, 0 28.72, 0 15 M0 15 C0 5, 5 0, 15 0 M0 15 C0 5, 5 0, 15 0" stroke="#1e1e1e" stroke-width="2" fill="none"/></g><g transform="translate(56.044921875 487) rotate(0 108.955078125 23)"><text x="108.955078125" y="0" font-family="Helvetica, Segoe UI Emoji" font-size="20px" fill="#1e1e1e" text-anchor="middle" style="white-space: pre;" direction="ltr" dominant-baseline="text-before-edge">Send message linking to</text><text x="108.955078125" y="23" font-family="Helvetica, Segoe UI Emoji" font-size="20px" fill="#1e1e1e" text-anchor="middle" style="white-space: pre;" direction="ltr" dominant-baseline="text-before-edge">images on shared folder</text></g><g stroke-linecap="round" transform="translate(20 330) rotate(0 145 30)"><path d="M15 0 C75.39 0, 135.78 0, 275 0 M15 0 C69.05 0, 123.1 0, 275 0 M275 0 C285 0, 290 5, 290 15 M275 0 C285 0, 290 5, 290 15 M290 15 C290 21.8, 290 28.6, 290 45 M290 15 C290 21.66, 290 28.32, 290 45 M290 45 C290 55, 285 60, 275 60 M290 45 C290 55, 285 60, 275 60 M275 60 C191.17 60, 107.35 60, 15 60 M275 60 C191.15 60, 107.31 60, 15 60 M15 60 C5 60, 0 55, 0 45 M15 60 C5 60, 0 55, 0 45 M0 45 C0 34.48, 0 23.96, 0 15 M0 45 C0 37.27, 0 29.54, 0 15 M0 15 C0 5, 5 0, 15 0 M0 15 C0 5, 5 0, 15 0" stroke="#1e1e1e" stroke-width="2" fill="none"/></g><g transform="translate(26.0302734375 348.5) rotate(0 138.9697265625 11.5)"><text x="138.9697265625" y="0" font-family="Helvetica, Segoe UI Emoji" font-size="20px" fill="#1e1e1e" text-anchor="middle" style="white-space: pre;" direction="ltr" dominant-baseline="text-before-edge">Upload images to shared folder</text></g><g stroke-linecap="round" transform="translate(20 240) rotate(0 145 30)"><path d="M15 0 C113.99 0, 212.97 0, 275 0 M15 0 C78.58 0, 142.16 0, 275 0 M275 0 C285 0, 290 5, 290 15 M275 0 C285 0, 290 5, 290 15 M290 15 C290 24.37, 290 33.75, 290 45 M290 15 C290 26.88, 290 38.75, 290 45 M290 45 C290 55, 285 60, 275 60 M290 45 C290 55, 285 60, 275 60 M275 60 C216.76 60, 158.52 60, 15 60 M275 60 C213.25 60, 151.49 60, 15 60 M15 60 C5 60, 0 55, 0 45 M15 60 C5 60, 0 55, 0 45 M0 45 C0 36.86, 0 28.71, 0 15 M0 45 C0 37.61, 0 30.23, 0 15 M0 15 C0 5, 5 0, 15 0 M0 15 C0 5, 5 0, 15 0" stroke="#1e1e1e" stroke-width="2" fill="none"/></g><g transform="translate(82.734375 247) rotate(0 82.265625 23)"><text x="82.265625" y="0" font-family="Helvetica, Segoe UI Emoji" font-size="20px" fill="#1e1e1e" text-anchor="middle" style="white-space: pre;" direction="ltr" dominant-baseline="text-before-edge">Download images </text><text x="82.265625" y="23" font-family="Helvetica, Segoe UI Emoji" font-size="20px" fill="#1e1e1e" text-anchor="middle" style="white-space: pre;" direction="ltr" dominant-baseline="text-before-edge">and descriptions</text></g><g stroke-linecap="round" transform="translate(20 150) rotate(0 145 30)"><path d="M15 0 C105.02 0, 195.04 0, 275 0 M15 0 C118.86 0, 222.73 0, 275 0 M275 0 C285 0, 290 5, 290 15 M275 0 C285 0, 290 5, 290 15 M290 15 C290 25.56, 290 36.11, 290 45 M290 15 C290 23.6, 290 32.2, 290 45 M290 45 C290 55, 285 60, 275 60 M290 45 C290 55, 285 60, 275 60 M275 60 C178.88 60, 82.76 60, 15 60 M275 60 C197.86 60, 120.73 60, 15 60 M15 60 C5 60, 0 55, 0 45 M15 60 C5 60, 0 55, 0 45 M0 45 C0 37.31, 0 29.62, 0 15 M0 45 C0 37.61, 0 30.22, 0 15 M0 15 C0 5, 5 0, 15 0 M0 15 C0 5, 5 0, 15 0" stroke="#1e1e1e" stroke-width="2" fill="none"/></g><g transform="translate(52.138671875 157) rotate(0 112.861328125 23)"><text x="112.861328125" y="0" font-family="Helvetica, Segoe UI Emoji" font-size="20px" fill="#1e1e1e" text-anchor="middle" style="white-space: pre;" direction="ltr" dominant-baseline="text-before-edge">Send request to generate</text><text x="112.861328125" y="23" font-family="Helvetica, Segoe UI Emoji" font-size="20px" fill="#1e1e1e" text-anchor="middle" style="white-space: pre;" direction="ltr" dominant-baseline="text-before-edge">images and descriptions</text></g><g stroke-linecap="round" transform="translate(20 60) rotate(0 145 30)"><path d="M15 0 C102.78 0, 190.56 0, 275 0 M15 0 C72.47 0, 129.94 0, 275 0 M275 0 C285 0, 290 5, 290 15 M275 0 C285 0, 290 5, 290 15 M290 15 C290 22.28, 290 29.57, 290 45 M290 15 C290 26.92, 290 38.84, 290 45 M290 45 C290 55, 285 60, 275 60 M290 45 C290 55, 285 60, 275 60 M275 60 C171.84 60, 68.68 60, 15 60 M275 60 C205.71 60, 136.42 60, 15 60 M15 60 C5 60, 0 55, 0 45 M15 60 C5 60, 0 55, 0 45 M0 45 C0 34.56, 0 24.12, 0 15 M0 45 C0 34.43, 0 23.86, 0 15 M0 15 C0 5, 5 0, 15 0 M0 15 C0 5, 5 0, 15 0" stroke="#1e1e1e" stroke-width="2" fill="none"/></g><g transform="translate(47.5 67) rotate(0 117.5 23)"><text x="117.5" y="0" font-family="Helvetica, Segoe UI Emoji" font-size="20px" fill="#1e1e1e" text-anchor="middle" style="white-space: pre;" direction="ltr" dominant-baseline="text-before-edge">Extract today's meals from</text><text x="117.5" y="23" font-family="Helvetica, Segoe UI Emoji" font-size="20px" fill="#1e1e1e" text-anchor="middle" style="white-space: pre;" direction="ltr" dominant-baseline="text-before-edge">Alsterfood website</text></g><g stroke-linecap="round" transform="translate(470 60) rotate(0 100 30)"><path d="M15 0 C73.1 0, 131.2 0, 185 0 M15 0 C58.55 0, 102.09 0, 185 0 M185 0 C195 0, 200 5, 200 15 M185 0 C195 0, 200 5, 200 15 M200 15 C200 25.28, 200 35.57, 200 45 M200 15 C200 22.8, 200 30.59, 200 45 M200 45 C200 55, 195 60, 185 60 M200 45 C200 55, 195 60, 185 60 M185 60 C125.63 60, 66.26 60, 15 60 M185 60 C137.47 60, 89.94 60, 15 60 M15 60 C5 60, 0 55, 0 45 M15 60 C5 60, 0 55, 0 45 M0 45 C0 38.56, 0 32.13, 0 15 M0 45 C0 34.42, 0 23.85, 0 15 M0 15 C0 5, 5 0, 15 0 M0 15 C0 5, 5 0, 15 0" stroke="#7b9e2f" stroke-width="2" fill="none"/></g><g transform="translate(488.291015625 78.5) rotate(0 81.708984375 11.5)"><text x="81.708984375" y="0" font-family="Helvetica, Segoe UI Emoji" font-size="20px" fill="#7b9e2f" text-anchor="middle" style="white-space: pre;" direction="ltr" dominant-baseline="text-before-edge">Alsterfood website</text></g><g stroke-linecap="round" transform="translate(470 150) rotate(0 100 75)"><path d="M32 0 C83.68 0, 135.36 0, 168 0 M32 0 C67.74 0, 103.48 0, 168 0 M168 0 C189.33 0, 200 10.67, 200 32 M168 0 C189.33 0, 200 10.67, 200 32 M200 32 C200 58.09, 200 84.18, 200 118 M200 32 C200 54.56, 200 77.12, 200 118 M200 118 C200 139.33, 189.33 150, 168 150 M200 118 C200 139.33, 189.33 150, 168 150 M168 150 C123.91 150, 79.81 150, 32 150 M168 150 C140.44 150, 112.88 150, 32 150 M32 150 C10.67 150, 0 139.33, 0 118 M32 150 C10.67 150, 0 139.33, 0 118 M0 118 C0 94.18, 0 70.36, 0 32 M0 118 C0 92.78, 0 67.57, 0 32 M0 32 C0 10.67, 10.67 0, 32 0 M0 32 C0 10.67, 10.67 0, 32 0" stroke="#1e1e1e" stroke-width="2" fill="none"/></g><g transform="translate(505.52734375 213.5) rotate(0 64.47265625 11.5)"><text x="64.47265625" y="0" font-family="Helvetica, Segoe UI Emoji" font-size="20px" fill="#1e1e1e" text-anchor="middle" style="white-space: pre;" direction="ltr" dominant-baseline="text-before-edge">OpenAI server</text></g><g stroke-linecap="round" transform="translate(470 330) rotate(0 100 30)"><path d="M15 0 C65.93 0, 116.85 0, 185 0 M15 0 C81.86 0, 148.72 0, 185 0 M185 0 C195 0, 200 5, 200 15 M185 0 C195 0, 200 5, 200 15 M200 15 C200 21.37, 200 27.74, 200 45 M200 15 C200 26.37, 200 37.74, 200 45 M200 45 C200 55, 195 60, 185 60 M200 45 C200 55, 195 60, 185 60 M185 60 C138.07 60, 91.13 60, 15 60 M185 60 C147.65 60, 110.29 60, 15 60 M15 60 C5 60, 0 55, 0 45 M15 60 C5 60, 0 55, 0 45 M0 45 C0 36.37, 0 27.75, 0 15 M0 45 C0 35.95, 0 26.9, 0 15 M0 15 C0 5, 5 0, 15 0 M0 15 C0 5, 5 0, 15 0" stroke="#288cd7" stroke-width="2" fill="none"/></g><g transform="translate(484.404296875 348.5) rotate(0 85.595703125 11.5)"><text x="85.595703125" y="0" font-family="Helvetica, Segoe UI Emoji" font-size="20px" fill="#288cd7" text-anchor="middle" style="white-space: pre;" direction="ltr" dominant-baseline="text-before-edge">DESY Sync&amp;Share</text></g><g stroke-linecap="round" transform="translate(470 480) rotate(0 100 30)"><path d="M15 0 C68.03 0, 121.06 0, 185 0 M15 0 C63.74 0, 112.47 0, 185 0 M185 0 C195 0, 200 5, 200 15 M185 0 C195 0, 200 5, 200 15 M200 15 C200 24.51, 200 34.03, 200 45 M200 15 C200 24.59, 200 34.18, 200 45 M200 45 C200 55, 195 60, 185 60 M200 45 C200 55, 195 60, 185 60 M185 60 C144.3 60, 103.6 60, 15 60 M185 60 C124.33 60, 63.65 60, 15 60 M15 60 C5 60, 0 55, 0 45 M15 60 C5 60, 0 55, 0 45 M0 45 C0 33.77, 0 22.55, 0 15 M0 45 C0 37.28, 0 29.55, 0 15 M0 15 C0 5, 5 0, 15 0 M0 15 C0 5, 5 0, 15 0" stroke="#1e3067" stroke-width="2" fill="none"/></g><g transform="translate(519.990234375 498.5) rotate(0 50.009765625 11.5)"><text x="50.009765625" y="0" font-family="Helvetica, Segoe UI Emoji" font-size="20px" fill="#1e3067" text-anchor="middle" style="white-space: pre;" direction="ltr" dominant-baseline="text-before-edge">Mattermost</text></g><g stroke-linecap="round"><g transform="translate(550.5017921146953 470) rotate(0 14.49820788530468 -35)"><path d="M0 0 C-1.75 -6.67, -10.42 -28.33, -10.5 -40 C-10.59 -51.67, -7.17 -65, -0.5 -70 C6.16 -75, 22.83 -75, 29.5 -70 C36.16 -65, 39.5 -51.67, 39.5 -40 C39.5 -28.33, 31.16 -6.67, 29.5 0 M0 0 C-1.75 -6.67, -10.42 -28.33, -10.5 -40 C-10.59 -51.67, -7.17 -65, -0.5 -70 C6.16 -75, 22.83 -75, 29.5 -70 C36.16 -65, 39.5 -51.67, 39.5 -40 C39.5 -28.33, 31.16 -6.67, 29.5 0" stroke="#1e1e1e" stroke-width="2" fill="none"/></g><g transform="translate(550.5017921146953 470) rotate(0 14.49820788530468 -35)"><path d="M29.5 0 L27.45 -14.86 L39.57 -11.12 L29.5 0" stroke="none" stroke-width="0" fill="#1e1e1e" fill-rule="evenodd"/><path d="M29.5 0 C29.07 -3.1, 28.65 -6.2, 27.45 -14.86 M29.5 0 C28.84 -4.81, 28.17 -9.61, 27.45 -14.86 M27.45 -14.86 C31.27 -13.68, 35.08 -12.5, 39.57 -11.12 M27.45 -14.86 C30.92 -13.79, 34.39 -12.72, 39.57 -11.12 M39.57 -11.12 C36.2 -7.41, 32.84 -3.69, 29.5 0 M39.57 -11.12 C36.21 -7.41, 32.86 -3.71, 29.5 0 M29.5 0 C29.5 0, 29.5 0, 29.5 0 M29.5 0 C29.5 0, 29.5 0, 29.5 0" stroke="#1e1e1e" stroke-width="2" fill="none"/></g></g><mask/><g transform="translate(611.669921875 410) rotate(0 106.7041015625 23)"><text x="106.7041015625" y="0" font-family="Helvetica, Segoe UI Emoji" font-size="20px" fill="#1e1e1e" text-anchor="middle" style="white-space: pre;" direction="ltr" dominant-baseline="text-before-edge">Access the images from</text><text x="106.7041015625" y="23" font-family="Helvetica, Segoe UI Emoji" font-size="20px" fill="#1e1e1e" text-anchor="middle" style="white-space: pre;" direction="ltr" dominant-baseline="text-before-edge">DESY Sync&amp;Share</text></g><g stroke-linecap="round"><g transform="translate(170 121) rotate(0 0 14)"><path d="M0 0 C0 4.67, 0 23.33, 0 28 M0 0 C0 4.67, 0 23.33, 0 28" stroke="#1e1e1e" stroke-width="2" fill="none"/></g><g transform="translate(170 121) rotate(0 0 14)"><path d="M0 28 L-5.92 15.31 L5.92 15.31 L0 28" stroke="none" stroke-width="0" fill="#1e1e1e" fill-rule="evenodd"/><path d="M0 28 C-1.22 25.39, -2.43 22.78, -5.92 15.31 M0 28 C-1.3 25.2, -2.61 22.41, -5.92 15.31 M-5.92 15.31 C-2.08 15.31, 1.76 15.31, 5.92 15.31 M-5.92 15.31 C-1.87 15.31, 2.18 15.31, 5.92 15.31 M5.92 15.31 C4.37 18.63, 2.82 21.96, 0 28 M5.92 15.31 C3.57 20.33, 1.23 25.36, 0 28 M0 28 C0 28, 0 28, 0 28 M0 28 C0 28, 0 28, 0 28" stroke="#1e1e1e" stroke-width="2" fill="none"/></g></g><mask/><g stroke-linecap="round"><g transform="translate(170 211) rotate(0 0 14)"><path d="M0 0 C0 4.67, 0 23.33, 0 28 M0 0 C0 4.67, 0 23.33, 0 28" stroke="#1e1e1e" stroke-width="2" fill="none"/></g><g transform="translate(170 211) rotate(0 0 14)"><path d="M0 28 L-5.92 15.31 L5.92 15.31 L0 28" stroke="none" stroke-width="0" fill="#1e1e1e" fill-rule="evenodd"/><path d="M0 28 C-1.99 23.73, -3.98 19.46, -5.92 15.31 M0 28 C-1.95 23.82, -3.9 19.63, -5.92 15.31 M-5.92 15.31 C-3.16 15.31, -0.39 15.31, 5.92 15.31 M-5.92 15.31 C-3.08 15.31, -0.25 15.31, 5.92 15.31 M5.92 15.31 C4.45 18.45, 2.99 21.59, 0 28 M5.92 15.31 C4.32 18.75, 2.71 22.18, 0 28 M0 28 C0 28, 0 28, 0 28 M0 28 C0 28, 0 28, 0 28" stroke="#1e1e1e" stroke-width="2" fill="none"/></g></g><mask/><g stroke-linecap="round"><g transform="translate(170 301) rotate(0 0 14)"><path d="M0 0 C0 4.67, 0 23.33, 0 28 M0 0 C0 4.67, 0 23.33, 0 28" stroke="#1e1e1e" stroke-width="2" fill="none"/></g><g transform="translate(170 301) rotate(0 0 14)"><path d="M0 28 L-5.92 15.31 L5.92 15.31 L0 28" stroke="none" stroke-width="0" fill="#1e1e1e" fill-rule="evenodd"/><path d="M0 28 C-1.59 24.59, -3.18 21.17, -5.92 15.31 M0 28 C-2.04 23.62, -4.09 19.24, -5.92 15.31 M-5.92 15.31 C-3.26 15.31, -0.61 15.31, 5.92 15.31 M-5.92 15.31 C-2.96 15.31, -0.01 15.31, 5.92 15.31 M5.92 15.31 C3.9 19.63, 1.89 23.94, 0 28 M5.92 15.31 C4.22 18.95, 2.52 22.59, 0 28 M0 28 C0 28, 0 28, 0 28 M0 28 C0 28, 0 28, 0 28" stroke="#1e1e1e" stroke-width="2" fill="none"/></g></g><mask/><g stroke-linecap="round"><g transform="translate(170 391) rotate(0 0 44)"><path d="M0 0 C0 14.67, 0 73.33, 0 88 M0 0 C0 14.67, 0 73.33, 0 88" stroke="#1e1e1e" stroke-width="2" fill="none"/></g><g transform="translate(170 391) rotate(0 0 44)"><path d="M0 88 L-6.34 74.41 L6.34 74.41 L0 88" stroke="none" stroke-width="0" fill="#1e1e1e" fill-rule="evenodd"/><path d="M0 88 C-2.3 83.06, -4.6 78.13, -6.34 74.41 M0 88 C-1.27 85.28, -2.54 82.56, -6.34 74.41 M-6.34 74.41 C-2.24 74.41, 1.87 74.41, 6.34 74.41 M-6.34 74.41 C-1.88 74.41, 2.58 74.41, 6.34 74.41 M6.34 74.41 C4.28 78.83, 2.21 83.25, 0 88 M6.34 74.41 C4.15 79.09, 1.97 83.78, 0 88 M0 88 C0 88, 0 88, 0 88 M0 88 C0 88, 0 88, 0 88" stroke="#1e1e1e" stroke-width="2" fill="none"/></g></g><mask/><g stroke-linecap="round" transform="translate(10 50) rotate(0 155.66705483248552 250.49568486691845)"><path d="M32 0 C97.17 0, 162.33 0, 279.33 0 M279.33 0 C300.67 0, 311.33 10.67, 311.33 32 M311.33 32 C311.33 143.21, 311.33 254.41, 311.33 468.99 M311.33 468.99 C311.33 490.32, 300.67 500.99, 279.33 500.99 M279.33 500.99 C186.5 500.99, 93.66 500.99, 32 500.99 M32 500.99 C10.67 500.99, 0 490.32, 0 468.99 M0 468.99 C0 380.1, 0 291.21, 0 32 M0 32 C0 10.67, 10.67 0, 32 0" stroke="#9c36b5" stroke-width="2.5" fill="none" stroke-dasharray="8 10"/></g></svg>