<svg version="1.1" xmlns="http://www.w3.org/2000/svg" viewBox="0 0 870 590" width="870" height="590" class="excalidraw-svg"><!-- svg-source:excalidraw --><metadata></metadata><defs><style class="style-fonts">
      </style></defs><g stroke-linecap="round" transform="translate(5 5) rotate(0 430 290)"><path d="M32 0 C237.22 0, 442.44 0, 828 0 C849.33 0, 860 10.67, 860 32 C860 156.96, 860 281.91, 860 548 C860 569.33, 849.33 580, 828 580 C564.56 580, 301.12 580, 32 580 C10.67 580, 0 569.33, 0 548 C0 434.87, 0 321.75, 0 32 C0 10.67, 10.67 0, 32 0" stroke="none" stroke-width="0" fill="#ffffff"></path><path d="M32 0 C283.93 0, 535.86 0, 828 0 M32 0 C197.87 0, 363.74 0, 828 0 M828 0 C849.33 0, 860 10.67, 860 32 M828 0 C849.33 0, 860 10.67, 860 32 M860 32 C860 162.1, 860 292.2, 860 548 M860 32 C860 146.37, 860 260.74, 860 548 M860 548 C860 569.33, 849.33 580, 828 580 M860 548 C860 569.33, 849.33 580, 828 580 M828 580 C583.68 580, 339.37 580, 32 580 M828 580 C590.98 580, 353.96 580, 32 580 M32 580 C10.67 580, 0 569.33, 0 548 M32 580 C10.67 580, 0 569.33, 0 548 M0 548 C0 355.36, 0 162.73, 0 32 M0 548 C0 417.52, 0 287.03, 0 32 M0 32 C0 10.67, 10.67 0, 32 0 M0 32 C0 10.67, 10.67 0, 32 0" stroke="#1e1e1e" stroke-width="2" fill="none"></path></g><g stroke-linecap="round"><g transform="translate(475 275) rotate(0 -60 0)"><path d="M0 0 C-20 0, -100 0, -120 0 M0 0 C-20 0, -100 0, -120 0" stroke="#1e1e1e" stroke-width="2" fill="none"></path></g><g transform="translate(475 275) rotate(0 -60 0)"><path d="M-120 0 L-106.41 -6.34 L-106.41 6.34 L-120 0" stroke="none" stroke-width="0" fill="#1e1e1e" fill-rule="evenodd"></path><path d="M-120 0 C-115.69 -2.01, -111.39 -4.02, -106.41 -6.34 M-120 0 C-114.66 -2.49, -109.32 -4.98, -106.41 -6.34 M-106.41 -6.34 C-106.41 -2.47, -106.41 1.4, -106.41 6.34 M-106.41 -6.34 C-106.41 -3.12, -106.41 0.09, -106.41 6.34 M-106.41 6.34 C-109.16 5.05, -111.92 3.77, -120 0 M-106.41 6.34 C-111.48 3.98, -116.54 1.61, -120 0 M-120 0 C-120 0, -120 0, -120 0 M-120 0 C-120 0, -120 0, -120 0" stroke="#1e1e1e" stroke-width="2" fill="none"></path></g></g><mask></mask><g stroke-linecap="round"><g transform="translate(352.33410966497104 515) rotate(0 61.332945167514495 -1.4210854715202004e-14)"><path d="M0 0 C20.44 0, 102.22 0, 122.67 0 M0 0 C20.44 0, 102.22 0, 122.67 0" stroke="#1e1e1e" stroke-width="2" fill="none"></path></g><g transform="translate(352.33410966497104 515) rotate(0 61.332945167514495 -1.4210854715202004e-14)"><path d="M122.67 0 L109.07 6.34 L109.07 -6.34 L122.67 0" stroke="none" stroke-width="0" fill="#1e1e1e" fill-rule="evenodd"></path><path d="M122.67 0 C119.37 1.54, 116.07 3.07, 109.07 6.34 M122.67 0 C118.53 1.93, 114.39 3.86, 109.07 6.34 M109.07 6.34 C109.07 3.45, 109.07 0.57, 109.07 -6.34 M109.07 6.34 C109.07 2.24, 109.07 -1.87, 109.07 -6.34 M109.07 -6.34 C113.32 -4.36, 117.57 -2.38, 122.67 0 M109.07 -6.34 C114.5 -3.81, 119.94 -1.27, 122.67 0 M122.67 0 C122.67 0, 122.67 0, 122.67 0 M122.67 0 C122.67 0, 122.67 0, 122.67 0" stroke="#1e1e1e" stroke-width="2" fill="none"></path></g></g><mask></mask><g stroke-linecap="round"><g transform="translate(352.33410966497104 365) rotate(0 61.332945167514495 -7.105427357601002e-15)"><path d="M0 0 C20.44 0, 102.22 0, 122.67 0 M0 0 C20.44 0, 102.22 0, 122.67 0" stroke="#1e1e1e" stroke-width="2" fill="none"></path></g><g transform="translate(352.33410966497104 365) rotate(0 61.332945167514495 -7.105427357601002e-15)"><path d="M122.67 0 L109.07 6.34 L109.07 -6.34 L122.67 0" stroke="none" stroke-width="0" fill="#1e1e1e" fill-rule="evenodd"></path><path d="M122.67 0 C118.17 2.1, 113.67 4.2, 109.07 6.34 M122.67 0 C117.71 2.31, 112.75 4.63, 109.07 6.34 M109.07 6.34 C109.07 3.21, 109.07 0.08, 109.07 -6.34 M109.07 6.34 C109.07 2.37, 109.07 -1.6, 109.07 -6.34 M109.07 -6.34 C111.91 -5.01, 114.75 -3.69, 122.67 0 M109.07 -6.34 C113.61 -4.22, 118.15 -2.11, 122.67 0 M122.67 0 C122.67 0, 122.67 0, 122.67 0 M122.67 0 C122.67 0, 122.67 0, 122.67 0" stroke="#1e1e1e" stroke-width="2" fill="none"></path></g></g><mask></mask><g stroke-linecap="round"><g transform="translate(475 95.00000000000009) rotate(0 -61.332945167514495 -2.842170943040401e-14)"><path d="M0 0 C-20.44 0, -102.22 0, -122.67 0 M0 0 C-20.44 0, -102.22 0, -122.67 0" stroke="#1e1e1e" stroke-width="2" fill="none"></path></g><g transform="translate(475 95.00000000000009) rotate(0 -61.332945167514495 -2.842170943040401e-14)"><path d="M-122.67 0 L-109.07 -6.34 L-109.07 6.34 L-122.67 0" stroke="none" stroke-width="0" fill="#1e1e1e" fill-rule="evenodd"></path><path d="M-122.67 0 C-119.27 -1.58, -115.88 -3.16, -109.07 -6.34 M-122.67 0 C-119.14 -1.64, -115.61 -3.29, -109.07 -6.34 M-109.07 -6.34 C-109.07 -2.59, -109.07 1.15, -109.07 6.34 M-109.07 -6.34 C-109.07 -3.02, -109.07 0.3, -109.07 6.34 M-109.07 6.34 C-112.66 4.67, -116.25 2.99, -122.67 0 M-109.07 6.34 C-114.35 3.88, -119.62 1.42, -122.67 0 M-122.67 0 C-122.67 0, -122.67 0, -122.67 0 M-122.67 0 C-122.67 0, -122.67 0, -122.67 0" stroke="#1e1e1e" stroke-width="2" fill="none"></path></g></g><mask></mask><g stroke-linecap="round"><g transform="translate(355 185) rotate(0 59.999999999999986 0.5591489040511348)"><path d="M0 0 C20 0.19, 100 0.93, 120 1.12 M0 0 C20 0.19, 100 0.93, 120 1.12" stroke="#1e1e1e" stroke-width="2" fill="none"></path></g><g transform="translate(355 185) rotate(0 59.999999999999986 0.5591489040511348)"><path d="M120 1.12 L106.35 7.33 L106.47 -5.35 L120 1.12" stroke="none" stroke-width="0" fill="#1e1e1e" fill-rule="evenodd"></path><path d="M120 1.12 C116.4 2.76, 112.8 4.4, 106.35 7.33 M120 1.12 C114.88 3.45, 109.75 5.78, 106.35 7.33 M106.35 7.33 C106.39 3.06, 106.43 -1.22, 106.47 -5.35 M106.35 7.33 C106.39 2.4, 106.44 -2.54, 106.47 -5.35 M106.47 -5.35 C111.83 -2.79, 117.19 -0.22, 120 1.12 M106.47 -5.35 C109.3 -3.99, 112.13 -2.64, 120 1.12 M120 1.12 C120 1.12, 120 1.12, 120 1.12 M120 1.12 C120 1.12, 120 1.12, 120 1.12" stroke="#1e1e1e" stroke-width="2" fill="none"></path></g></g><mask></mask><g transform="translate(44.84375 15) rotate(0 133.02734375 11.5)"><text x="133.02734375" y="16.900390625" font-family="Helvetica, Segoe UI Emoji" font-size="20px" fill="#9c36b5" text-anchor="middle" style="white-space: pre;" direction="ltr" dominant-baseline="alphabetic">One execution of the lunchbot</text></g><g stroke-linecap="round" transform="translate(35 485) rotate(0 145 30)"><path d="M15 0 C110.95 0, 206.9 0, 275 0 M15 0 C99.13 0, 183.25 0, 275 0 M275 0 C285 0, 290 5, 290 15 M275 0 C285 0, 290 5, 290 15 M290 15 C290 23.24, 290 31.48, 290 45 M290 15 C290 22.4, 290 29.8, 290 45 M290 45 C290 55, 285 60, 275 60 M290 45 C290 55, 285 60, 275 60 M275 60 C180.36 60, 85.73 60, 15 60 M275 60 C172.08 60, 69.17 60, 15 60 M15 60 C5 60, 0 55, 0 45 M15 60 C5 60, 0 55, 0 45 M0 45 C0 34.57, 0 24.15, 0 15 M0 45 C0 36.86, 0 28.72, 0 15 M0 15 C0 5, 5 0, 15 0 M0 15 C0 5, 5 0, 15 0" stroke="#1e1e1e" stroke-width="2" fill="none"></path></g><g transform="translate(70.9765625 492) rotate(0 109.0234375 23)"><text x="109.0234375" y="16.900390625" font-family="Helvetica, Segoe UI Emoji" font-size="20px" fill="#1e1e1e" text-anchor="middle" style="white-space: pre;" direction="ltr" dominant-baseline="alphabetic">Send message linking to</text><text x="109.0234375" y="39.900390625" font-family="Helvetica, Segoe UI Emoji" font-size="20px" fill="#1e1e1e" text-anchor="middle" style="white-space: pre;" direction="ltr" dominant-baseline="alphabetic">images on shared folder</text></g><g stroke-linecap="round" transform="translate(35 335) rotate(0 145 30)"><path d="M15 0 C75.39 0, 135.78 0, 275 0 M15 0 C69.05 0, 123.1 0, 275 0 M275 0 C285 0, 290 5, 290 15 M275 0 C285 0, 290 5, 290 15 M290 15 C290 21.8, 290 28.6, 290 45 M290 15 C290 21.66, 290 28.32, 290 45 M290 45 C290 55, 285 60, 275 60 M290 45 C290 55, 285 60, 275 60 M275 60 C191.17 60, 107.35 60, 15 60 M275 60 C191.15 60, 107.31 60, 15 60 M15 60 C5 60, 0 55, 0 45 M15 60 C5 60, 0 55, 0 45 M0 45 C0 34.48, 0 23.96, 0 15 M0 45 C0 37.27, 0 29.54, 0 15 M0 15 C0 5, 5 0, 15 0 M0 15 C0 5, 5 0, 15 0" stroke="#1e1e1e" stroke-width="2" fill="none"></path></g><g transform="translate(40.3173828125 353.5) rotate(0 139.6826171875 11.5)"><text x="139.6826171875" y="16.900390625" font-family="Helvetica, Segoe UI Emoji" font-size="20px" fill="#1e1e1e" text-anchor="middle" style="white-space: pre;" direction="ltr" dominant-baseline="alphabetic">Upload images to shared folder</text></g><g stroke-linecap="round" transform="translate(35 245) rotate(0 145 30)"><path d="M15 0 C113.99 0, 212.97 0, 275 0 M15 0 C78.58 0, 142.16 0, 275 0 M275 0 C285 0, 290 5, 290 15 M275 0 C285 0, 290 5, 290 15 M290 15 C290 24.37, 290 33.75, 290 45 M290 15 C290 26.88, 290 38.75, 290 45 M290 45 C290 55, 285 60, 275 60 M290 45 C290 55, 285 60, 275 60 M275 60 C216.76 60, 158.52 60, 15 60 M275 60 C213.25 60, 151.49 60, 15 60 M15 60 C5 60, 0 55, 0 45 M15 60 C5 60, 0 55, 0 45 M0 45 C0 36.86, 0 28.71, 0 15 M0 45 C0 37.61, 0 30.23, 0 15 M0 15 C0 5, 5 0, 15 0 M0 15 C0 5, 5 0, 15 0" stroke="#1e1e1e" stroke-width="2" fill="none"></path></g><g transform="translate(97.734375 252) rotate(0 82.265625 23)"><text x="82.265625" y="16.900390625" font-family="Helvetica, Segoe UI Emoji" font-size="20px" fill="#1e1e1e" text-anchor="middle" style="white-space: pre;" direction="ltr" dominant-baseline="alphabetic">Download images </text><text x="82.265625" y="39.900390625" font-family="Helvetica, Segoe UI Emoji" font-size="20px" fill="#1e1e1e" text-anchor="middle" style="white-space: pre;" direction="ltr" dominant-baseline="alphabetic">and descriptions</text></g><g stroke-linecap="round" transform="translate(35 155) rotate(0 145 30)"><path d="M15 0 C105.02 0, 195.04 0, 275 0 M15 0 C118.86 0, 222.73 0, 275 0 M275 0 C285 0, 290 5, 290 15 M275 0 C285 0, 290 5, 290 15 M290 15 C290 25.56, 290 36.11, 290 45 M290 15 C290 23.6, 290 32.2, 290 45 M290 45 C290 55, 285 60, 275 60 M290 45 C290 55, 285 60, 275 60 M275 60 C178.88 60, 82.76 60, 15 60 M275 60 C197.86 60, 120.73 60, 15 60 M15 60 C5 60, 0 55, 0 45 M15 60 C5 60, 0 55, 0 45 M0 45 C0 37.31, 0 29.62, 0 15 M0 45 C0 37.61, 0 30.22, 0 15 M0 15 C0 5, 5 0, 15 0 M0 15 C0 5, 5 0, 15 0" stroke="#1e1e1e" stroke-width="2" fill="none"></path></g><g transform="translate(67.1044921875 162) rotate(0 112.8955078125 23)"><text x="112.8955078125" y="16.900390625" font-family="Helvetica, Segoe UI Emoji" font-size="20px" fill="#1e1e1e" text-anchor="middle" style="white-space: pre;" direction="ltr" dominant-baseline="alphabetic">Send request to generate</text><text x="112.8955078125" y="39.900390625" font-family="Helvetica, Segoe UI Emoji" font-size="20px" fill="#1e1e1e" text-anchor="middle" style="white-space: pre;" direction="ltr" dominant-baseline="alphabetic">images and descriptions</text></g><g stroke-linecap="round" transform="translate(35 65) rotate(0 145 30)"><path d="M15 0 C102.78 0, 190.56 0, 275 0 M15 0 C72.47 0, 129.94 0, 275 0 M275 0 C285 0, 290 5, 290 15 M275 0 C285 0, 290 5, 290 15 M290 15 C290 22.28, 290 29.57, 290 45 M290 15 C290 26.92, 290 38.84, 290 45 M290 45 C290 55, 285 60, 275 60 M290 45 C290 55, 285 60, 275 60 M275 60 C171.84 60, 68.68 60, 15 60 M275 60 C205.71 60, 136.42 60, 15 60 M15 60 C5 60, 0 55, 0 45 M15 60 C5 60, 0 55, 0 45 M0 45 C0 34.56, 0 24.12, 0 15 M0 45 C0 34.43, 0 23.86, 0 15 M0 15 C0 5, 5 0, 15 0 M0 15 C0 5, 5 0, 15 0" stroke="#1e1e1e" stroke-width="2" fill="none"></path></g><g transform="translate(62.294921875 72) rotate(0 117.705078125 23)"><text x="117.705078125" y="16.900390625" font-family="Helvetica, Segoe UI Emoji" font-size="20px" fill="#1e1e1e" text-anchor="middle" style="white-space: pre;" direction="ltr" dominant-baseline="alphabetic">Extract today's meals from</text><text x="117.705078125" y="39.900390625" font-family="Helvetica, Segoe UI Emoji" font-size="20px" fill="#1e1e1e" text-anchor="middle" style="white-space: pre;" direction="ltr" dominant-baseline="alphabetic">Alsterfood website</text></g><g stroke-linecap="round" transform="translate(485 65) rotate(0 100 30)"><path d="M15 0 C73.1 0, 131.2 0, 185 0 M15 0 C58.55 0, 102.09 0, 185 0 M185 0 C195 0, 200 5, 200 15 M185 0 C195 0, 200 5, 200 15 M200 15 C200 25.28, 200 35.57, 200 45 M200 15 C200 22.8, 200 30.59, 200 45 M200 45 C200 55, 195 60, 185 60 M200 45 C200 55, 195 60, 185 60 M185 60 C125.63 60, 66.26 60, 15 60 M185 60 C137.47 60, 89.94 60, 15 60 M15 60 C5 60, 0 55, 0 45 M15 60 C5 60, 0 55, 0 45 M0 45 C0 38.56, 0 32.13, 0 15 M0 45 C0 34.42, 0 23.85, 0 15 M0 15 C0 5, 5 0, 15 0 M0 15 C0 5, 5 0, 15 0" stroke="#7b9e2f" stroke-width="2" fill="none"></path></g><g transform="translate(503.291015625 83.5) rotate(0 81.708984375 11.5)"><text x="81.708984375" y="16.900390625" font-family="Helvetica, Segoe UI Emoji" font-size="20px" fill="#7b9e2f" text-anchor="middle" style="white-space: pre;" direction="ltr" dominant-baseline="alphabetic">Alsterfood website</text></g><g stroke-linecap="round" transform="translate(485 155) rotate(0 100 75)"><path d="M32 0 C83.68 0, 135.36 0, 168 0 M32 0 C67.74 0, 103.48 0, 168 0 M168 0 C189.33 0, 200 10.67, 200 32 M168 0 C189.33 0, 200 10.67, 200 32 M200 32 C200 58.09, 200 84.18, 200 118 M200 32 C200 54.56, 200 77.12, 200 118 M200 118 C200 139.33, 189.33 150, 168 150 M200 118 C200 139.33, 189.33 150, 168 150 M168 150 C123.91 150, 79.81 150, 32 150 M168 150 C140.44 150, 112.88 150, 32 150 M32 150 C10.67 150, 0 139.33, 0 118 M32 150 C10.67 150, 0 139.33, 0 118 M0 118 C0 94.18, 0 70.36, 0 32 M0 118 C0 92.78, 0 67.57, 0 32 M0 32 C0 10.67, 10.67 0, 32 0 M0 32 C0 10.67, 10.67 0, 32 0" stroke="#1e1e1e" stroke-width="2" fill="none"></path></g><g transform="translate(520.25390625 218.5) rotate(0 64.74609375 11.5)"><text x="64.74609375" y="16.900390625" font-family="Helvetica, Segoe UI Emoji" font-size="20px" fill="#1e1e1e" text-anchor="middle" style="white-space: pre;" direction="ltr" dominant-baseline="alphabetic">OpenAI server</text></g><g stroke-linecap="round" transform="translate(485 335) rotate(0 100 30)"><path d="M15 0 C65.93 0, 116.85 0, 185 0 M15 0 C81.86 0, 148.72 0, 185 0 M185 0 C195 0, 200 5, 200 15 M185 0 C195 0, 200 5, 200 15 M200 15 C200 21.37, 200 27.74, 200 45 M200 15 C200 26.37, 200 37.74, 200 45 M200 45 C200 55, 195 60, 185 60 M200 45 C200 55, 195 60, 185 60 M185 60 C138.07 60, 91.13 60, 15 60 M185 60 C147.65 60, 110.29 60, 15 60 M15 60 C5 60, 0 55, 0 45 M15 60 C5 60, 0 55, 0 45 M0 45 C0 36.37, 0 27.75, 0 15 M0 45 C0 35.95, 0 26.9, 0 15 M0 15 C0 5, 5 0, 15 0 M0 15 C0 5, 5 0, 15 0" stroke="#288cd7" stroke-width="2" fill="none"></path></g><g transform="translate(499.033203125 353.5) rotate(0 85.966796875 11.5)"><text x="85.966796875" y="16.900390625" font-family="Helvetica, Segoe UI Emoji" font-size="20px" fill="#288cd7" text-anchor="middle" style="white-space: pre;" direction="ltr" dominant-baseline="alphabetic">DESY Sync&amp;Share</text></g><g stroke-linecap="round" transform="translate(485 485) rotate(0 100 30)"><path d="M15 0 C68.03 0, 121.06 0, 185 0 M15 0 C63.74 0, 112.47 0, 185 0 M185 0 C195 0, 200 5, 200 15 M185 0 C195 0, 200 5, 200 15 M200 15 C200 24.51, 200 34.03, 200 45 M200 15 C200 24.59, 200 34.18, 200 45 M200 45 C200 55, 195 60, 185 60 M200 45 C200 55, 195 60, 185 60 M185 60 C144.3 60, 103.6 60, 15 60 M185 60 C124.33 60, 63.65 60, 15 60 M15 60 C5 60, 0 55, 0 45 M15 60 C5 60, 0 55, 0 45 M0 45 C0 33.77, 0 22.55, 0 15 M0 45 C0 37.28, 0 29.55, 0 15 M0 15 C0 5, 5 0, 15 0 M0 15 C0 5, 5 0, 15 0" stroke="#1e3067" stroke-width="2" fill="none"></path></g><g transform="translate(534.4873046875 503.5) rotate(0 50.5126953125 11.5)"><text x="50.5126953125" y="16.900390625" font-family="Helvetica, Segoe UI Emoji" font-size="20px" fill="#1e3067" text-anchor="middle" style="white-space: pre;" direction="ltr" dominant-baseline="alphabetic">Mattermost</text></g><g transform="translate(626.669921875 415) rotate(0 106.7041015625 23)"><text x="106.7041015625" y="16.900390625" font-family="Helvetica, Segoe UI Emoji" font-size="20px" fill="#1e1e1e" text-anchor="middle" style="white-space: pre;" direction="ltr" dominant-baseline="alphabetic">Access the images from</text><text x="106.7041015625" y="39.900390625" font-family="Helvetica, Segoe UI Emoji" font-size="20px" fill="#1e1e1e" text-anchor="middle" style="white-space: pre;" direction="ltr" dominant-baseline="alphabetic">DESY Sync&amp;Share</text></g><g stroke-linecap="round"><g transform="translate(185 126) rotate(0 0 14)"><path d="M0 0 C0 4.67, 0 23.33, 0 28 M0 0 C0 4.67, 0 23.33, 0 28" stroke="#1e1e1e" stroke-width="2" fill="none"></path></g><g transform="translate(185 126) rotate(0 0 14)"><path d="M0 28 L-5.92 15.31 L5.92 15.31 L0 28" stroke="none" stroke-width="0" fill="#1e1e1e" fill-rule="evenodd"></path><path d="M0 28 C-1.22 25.39, -2.43 22.78, -5.92 15.31 M0 28 C-1.3 25.2, -2.61 22.41, -5.92 15.31 M-5.92 15.31 C-2.08 15.31, 1.76 15.31, 5.92 15.31 M-5.92 15.31 C-1.87 15.31, 2.18 15.31, 5.92 15.31 M5.92 15.31 C4.37 18.63, 2.82 21.96, 0 28 M5.92 15.31 C3.57 20.33, 1.23 25.36, 0 28 M0 28 C0 28, 0 28, 0 28 M0 28 C0 28, 0 28, 0 28" stroke="#1e1e1e" stroke-width="2" fill="none"></path></g></g><mask></mask><g stroke-linecap="round"><g transform="translate(185 216) rotate(0 0 14)"><path d="M0 0 C0 4.67, 0 23.33, 0 28 M0 0 C0 4.67, 0 23.33, 0 28" stroke="#1e1e1e" stroke-width="2" fill="none"></path></g><g transform="translate(185 216) rotate(0 0 14)"><path d="M0 28 L-5.92 15.31 L5.92 15.31 L0 28" stroke="none" stroke-width="0" fill="#1e1e1e" fill-rule="evenodd"></path><path d="M0 28 C-1.99 23.73, -3.98 19.46, -5.92 15.31 M0 28 C-1.95 23.82, -3.9 19.63, -5.92 15.31 M-5.92 15.31 C-3.16 15.31, -0.39 15.31, 5.92 15.31 M-5.92 15.31 C-3.08 15.31, -0.25 15.31, 5.92 15.31 M5.92 15.31 C4.45 18.45, 2.99 21.59, 0 28 M5.92 15.31 C4.32 18.75, 2.71 22.18, 0 28 M0 28 C0 28, 0 28, 0 28 M0 28 C0 28, 0 28, 0 28" stroke="#1e1e1e" stroke-width="2" fill="none"></path></g></g><mask></mask><g stroke-linecap="round"><g transform="translate(185 306) rotate(0 0 14.000000000000002)"><path d="M0 0 C0 4.67, 0 23.33, 0 28 M0 0 C0 4.67, 0 23.33, 0 28" stroke="#1e1e1e" stroke-width="2" fill="none"></path></g><g transform="translate(185 306) rotate(0 0 14.000000000000002)"><path d="M0 28 L-5.92 15.31 L5.92 15.31 L0 28" stroke="none" stroke-width="0" fill="#1e1e1e" fill-rule="evenodd"></path><path d="M0 28 C-1.59 24.59, -3.18 21.17, -5.92 15.31 M0 28 C-2.04 23.62, -4.09 19.24, -5.92 15.31 M-5.92 15.31 C-3.26 15.31, -0.61 15.31, 5.92 15.31 M-5.92 15.31 C-2.96 15.31, -0.01 15.31, 5.92 15.31 M5.92 15.31 C3.9 19.63, 1.89 23.94, 0 28 M5.92 15.31 C4.22 18.95, 2.52 22.59, 0 28 M0 28 C0 28, 0 28, 0 28 M0 28 C0 28, 0 28, 0 28" stroke="#1e1e1e" stroke-width="2" fill="none"></path></g></g><mask></mask><g stroke-linecap="round"><g transform="translate(185 396) rotate(0 0 43.99999999999999)"><path d="M0 0 C0 14.67, 0 73.33, 0 88 M0 0 C0 14.67, 0 73.33, 0 88" stroke="#1e1e1e" stroke-width="2" fill="none"></path></g><g transform="translate(185 396) rotate(0 0 43.99999999999999)"><path d="M0 88 L-6.34 74.41 L6.34 74.41 L0 88" stroke="none" stroke-width="0" fill="#1e1e1e" fill-rule="evenodd"></path><path d="M0 88 C-2.3 83.06, -4.6 78.13, -6.34 74.41 M0 88 C-1.27 85.28, -2.54 82.56, -6.34 74.41 M-6.34 74.41 C-2.24 74.41, 1.87 74.41, 6.34 74.41 M-6.34 74.41 C-1.88 74.41, 2.58 74.41, 6.34 74.41 M6.34 74.41 C4.28 78.83, 2.21 83.25, 0 88 M6.34 74.41 C4.15 79.09, 1.97 83.78, 0 88 M0 88 C0 88, 0 88, 0 88 M0 88 C0 88, 0 88, 0 88" stroke="#1e1e1e" stroke-width="2" fill="none"></path></g></g><mask></mask><g stroke-linecap="round" transform="translate(25 55) rotate(0 155.66705483248552 250.49568486691845)"><path d="M32 0 C97.17 0, 162.33 0, 279.33 0 M279.33 0 C300.67 0, 311.33 10.67, 311.33 32 M311.33 32 C311.33 143.21, 311.33 254.41, 311.33 468.99 M311.33 468.99 C311.33 490.32, 300.67 500.99, 279.33 500.99 M279.33 500.99 C186.5 500.99, 93.66 500.99, 32 500.99 M32 500.99 C10.67 500.99, 0 490.32, 0 468.99 M0 468.99 C0 380.1, 0 291.21, 0 32 M0 32 C0 10.67, 10.67 0, 32 0" stroke="#9c36b5" stroke-width="2.5" fill="none" stroke-dasharray="8 10"></path></g><g stroke-linecap="round"><g transform="translate(565 480) rotate(0 20 -37.5)"><path d="M0 0 C0 -13.31, 0 -26.61, 0 -59 M0 0 C0 -18.71, 0 -37.42, 0 -59 M0 -59 C0 -69.67, 5.33 -75, 16 -75 M0 -59 C0 -69.67, 5.33 -75, 16 -75 M16 -75 C17.73 -75, 19.45 -75, 24 -75 M16 -75 C17.96 -75, 19.92 -75, 24 -75 M24 -75 C34.67 -75, 40 -69.67, 40 -59 M24 -75 C34.67 -75, 40 -69.67, 40 -59 M40 -59 C40 -46.06, 40 -33.11, 40 0 M40 -59 C40 -38.24, 40 -17.47, 40 0" stroke="#1e1e1e" stroke-width="2" fill="none"></path></g><g transform="translate(565 480) rotate(0 20 -37.5)"><path d="M40 0 L33.66 -13.59 L46.34 -13.59 L40 0" stroke="none" stroke-width="0" fill="#1e1e1e" fill-rule="evenodd"></path><path d="M40 0 C38.57 -3.07, 37.14 -6.13, 33.66 -13.59 M40 0 C37.99 -4.31, 35.98 -8.62, 33.66 -13.59 M33.66 -13.59 C36.54 -13.59, 39.43 -13.59, 46.34 -13.59 M33.66 -13.59 C38.19 -13.59, 42.72 -13.59, 46.34 -13.59 M46.34 -13.59 C44.56 -9.79, 42.79 -5.98, 40 0 M46.34 -13.59 C44.27 -9.15, 42.2 -4.71, 40 0 M40 0 C40 0, 40 0, 40 0 M40 0 C40 0, 40 0, 40 0" stroke="#1e1e1e" stroke-width="2" fill="none"></path></g></g><mask></mask></svg>
